<?xml version="1.0" encoding="UTF-8"?>
<svg id="Layer_1" xmlns="http://www.w3.org/2000/svg" version="1.1" viewBox="0 0 151.87 64.94">
  <!-- Generator: Adobe Illustrator 29.8.2, SVG Export Plug-In . SVG Version: 2.1.1 Build 3)  -->
  <defs>
    <style>
      .st0 {
        fill: #3951a2;
      }
    </style>
  </defs>
  <g>
    <path d="M12.41,51.61c-6.74,0-11.66-3.62-12.41-9.5h4.64c.59,3.24,3.78,5.24,7.77,5.24,4.31,0,6.96-2.11,6.96-4.53,0-1.94-.76-3.4-7.55-4.32-6.74-.97-10.84-2.59-10.84-7.82,0-3.99,3.45-8.25,10.9-8.25,6.42,0,10.74,3.24,11.33,8.69h-4.64c-.65-2.97-3.29-4.48-6.69-4.48-3.67,0-6.31,1.73-6.31,3.88,0,2,1.57,2.7,7.02,3.56,6.15.97,11.22,2.16,11.22,8.47,0,5.56-4.75,9.07-11.38,9.07Z"/>
    <path d="M52.28,42.28c-1.94,5.94-6.69,9.28-13.11,9.28-7.99,0-14.24-6.37-14.24-14.51s6.26-14.62,13.97-14.62c7.18,0,14.08,5.93,14.03,15.81h-23.36c.59,5.77,5.02,9.17,9.61,9.17,3.94,0,6.74-1.89,8.26-5.13h4.86ZM47.86,34.13c-1.13-4.53-4.91-7.55-8.96-7.55-3.83,0-7.88,2.81-9.07,7.55h18.02Z"/>
    <path d="M81.74,50.91h-4.42v-4.48c-1.94,2.86-5.5,5.18-9.61,5.18-7.98,0-13.92-6.53-13.92-14.57s5.94-14.62,13.92-14.62c3.99,0,7.45,2.21,9.44,4.91V10.77h4.59v40.14ZM67.71,26.68c-5.23,0-9.33,4.64-9.33,10.41s4.1,10.3,9.33,10.3,9.44-4.64,9.44-10.3-4.32-10.41-9.44-10.41Z"/>
  </g>
  <g>
    <path d="M100.58,21.24c-.82.84-2.16,1.32-3.75,1.32-2.87,0-4.89-1.26-5.27-3.57h.82c.4,1.83,2.03,2.8,4.43,2.8,1.37,0,2.51-.44,3.17-1.12.39-.42.59-.97.55-1.57-.04-1.39-1.17-2.09-3.95-2.49-1.96-.29-4.39-.62-4.43-2.87,0-1.54,1.45-3.09,4.3-3.09,2.51,0,4.17,1.12,4.65,3.17h-.84c-.46-1.52-1.76-2.4-3.79-2.4s-3.5.99-3.48,2.31c.02,1.3,1.21,1.72,3.73,2.07,2.36.35,4.54.97,4.65,3.26.02.79-.24,1.59-.79,2.16Z"/>
    <path d="M103.65,16.62c.02,2.95,2.23,5.14,4.98,5.14s3.88-1.48,4.43-2.98h.86c-.79,2.45-2.62,3.79-5.29,3.79-3.24,0-5.8-2.6-5.8-5.91s2.53-6,5.66-6c3.39,0,5.71,3.09,5.67,5.95h-10.52ZM113.28,15.8c-.39-2.45-2.4-4.3-4.78-4.3s-4.39,1.85-4.76,4.3h9.54Z"/>
    <path d="M117.32,18.38c0,1.94.9,3.26,3.06,3.17v.75c-2.45.22-3.88-1.39-3.88-3.92v-6.61h-1.54v-.82h1.54v-2.42h.82v2.42h3.06v.82h-3.06v6.61Z"/>
    <path d="M132.04,22.3h-.82v-6.86c0-2.49-1.34-3.99-3.83-3.99-2.29,0-4.08,1.7-4.08,3.99v6.86h-.82V5.9h.82v6.97c.82-1.34,2.29-2.2,4.1-2.2,2.91,0,4.63,1.83,4.63,4.78v6.86Z"/>
  </g>
  <g>
    <path d="M92.27,30.45c.02,2.95,2.23,5.14,4.98,5.14s3.88-1.48,4.43-2.98h.86c-.79,2.45-2.62,3.79-5.29,3.79-3.24,0-5.8-2.6-5.8-5.91s2.54-6,5.67-6c3.39,0,5.71,3.09,5.66,5.95h-10.52ZM101.9,29.64c-.4-2.45-2.4-4.3-4.78-4.3s-4.39,1.85-4.76,4.3h9.54Z"/>
    <path d="M113.37,36.14c-.2-.42-.31-.95-.31-1.65v-.22c-.9,1.28-2.65,2.07-4.9,2.07-1.98,0-4.12-.99-4.12-3.17,0-2.58,2.4-3.17,4.83-3.4,2.51-.24,4.19-.51,4.19-1.9,0-2.09-1.98-2.58-3.66-2.58-2.07,0-3.44.86-3.92,2.4h-.84c.51-2.03,2.2-3.2,4.76-3.2,2.85,0,4.48,1.24,4.48,3.37v6.42c0,.57.15,1.41.33,1.85h-.84ZM113.06,29.42c-.88.81-2.54.97-4.1,1.1-2.91.29-4.03,1.06-4.03,2.62,0,1.87,2.12,2.38,3.24,2.38,2.45,0,4.9-1.1,4.9-3.51v-2.6Z"/>
    <path d="M124.94,35.08c-.82.84-2.16,1.32-3.75,1.32-2.87,0-4.9-1.26-5.27-3.57h.82c.4,1.83,2.03,2.8,4.43,2.8,1.37,0,2.51-.44,3.17-1.12.4-.42.6-.97.55-1.57-.04-1.39-1.17-2.09-3.95-2.49-1.96-.29-4.39-.62-4.43-2.87,0-1.54,1.45-3.09,4.3-3.09,2.51,0,4.17,1.12,4.65,3.17h-.84c-.46-1.52-1.77-2.4-3.79-2.4s-3.51.99-3.48,2.31c.02,1.3,1.21,1.72,3.72,2.07,2.36.35,4.54.97,4.65,3.26.02.79-.24,1.59-.79,2.16Z"/>
    <path d="M129.05,32.21c0,1.94.9,3.26,3.06,3.17v.75c-2.44.22-3.88-1.39-3.88-3.92v-6.61h-1.54v-.82h1.54v-2.42h.82v2.42h3.06v.82h-3.06v6.61Z"/>
    <path d="M133.72,30.45c.02,2.95,2.23,5.14,4.98,5.14s3.88-1.48,4.43-2.98h.86c-.79,2.45-2.62,3.79-5.29,3.79-3.24,0-5.8-2.6-5.8-5.91s2.54-6,5.67-6c3.39,0,5.71,3.09,5.66,5.95h-10.52ZM143.35,29.64c-.4-2.45-2.4-4.3-4.78-4.3s-4.39,1.85-4.76,4.3h9.54Z"/>
    <path d="M151.87,25.29c-1.5-.13-2.64.29-3.35.97-.82.73-1.26,1.83-1.26,3.02v6.86h-.84v-11.35h.84v1.9c.2-.37.44-.73.75-1.01.99-.88,2.31-1.3,3.86-1.12v.75Z"/>
  </g>
  <g>
    <path d="M101.72,50.87h-.75v-2.49c-.84,1.63-2.49,2.73-4.42,2.73-2.85,0-5.16-2.41-5.16-5.38s2.31-5.46,5.16-5.46c1.93,0,3.57,1.13,4.42,2.77v-7.11h.75v14.94ZM96.56,41.03c-2.43,0-4.42,2.11-4.42,4.7s1.99,4.64,4.42,4.64,4.42-2.09,4.42-4.64-1.99-4.7-4.42-4.7Z"/>
    <path d="M104.45,45.69c.02,2.69,2.03,4.68,4.54,4.68s3.54-1.35,4.04-2.71h.78c-.72,2.23-2.39,3.45-4.82,3.45-2.95,0-5.28-2.37-5.28-5.38s2.31-5.46,5.16-5.46c3.09,0,5.2,2.81,5.16,5.42h-9.58ZM113.23,44.94c-.36-2.23-2.19-3.92-4.36-3.92s-4,1.69-4.34,3.92h8.7Z"/>
    <path d="M123.13,49.9c-.74.76-1.97,1.21-3.42,1.21-2.61,0-4.46-1.15-4.8-3.25h.74c.36,1.67,1.85,2.55,4.04,2.55,1.25,0,2.29-.4,2.89-1.03.36-.38.54-.88.5-1.43-.04-1.27-1.06-1.91-3.59-2.27-1.79-.26-4-.56-4.04-2.61,0-1.41,1.33-2.81,3.92-2.81,2.29,0,3.79,1.02,4.24,2.89h-.76c-.42-1.39-1.61-2.19-3.45-2.19s-3.19.9-3.17,2.11c.02,1.18,1.1,1.57,3.39,1.89,2.15.32,4.14.88,4.24,2.97.02.72-.22,1.45-.72,1.97Z"/>
    <path d="M126.83,38.78h-.74v-1.85h.74v1.85ZM126.83,50.87h-.74v-10.34h.74v10.34Z"/>
    <path d="M139.32,50.59c0,3.19-2.05,5.34-5.1,5.34-2.43,0-4.2-1.27-4.82-3.39h.78c.58,1.67,2.05,2.65,4.04,2.65,2.65,0,4.36-1.81,4.36-4.6v-2.13c-.82,1.61-2.43,2.67-4.4,2.67-2.85,0-5.16-2.43-5.16-5.4s2.31-5.46,5.16-5.46c1.97,0,3.57,1.07,4.4,2.69v-2.43h.74v10.06ZM134.18,41.03c-2.45,0-4.42,2.11-4.42,4.7s1.97,4.64,4.42,4.64,4.4-1.95,4.4-4.64-1.85-4.7-4.4-4.7Z"/>
    <path d="M150.81,50.87h-.74v-6.25c0-2.27-1.23-3.64-3.5-3.64-2.09,0-3.71,1.55-3.71,3.64v6.25h-.75v-10.34h.75v1.75c.74-1.23,2.09-2.01,3.73-2.01,2.65,0,4.22,1.67,4.22,4.36v6.25Z"/>
  </g>
  <rect class="st0" x="86.87" width=".45" height="64.94"/>
</svg>