<?xml version="1.0" encoding="UTF-8"?>
<svg id="Layer_1" xmlns="http://www.w3.org/2000/svg" version="1.1" viewBox="240 375 130 50">
  <defs>
    <style>
      .st0 { fill: #3a51a3; }
      .st1 { fill: #010101; }
    </style>
  </defs>
  <g>
    <path class="st1" d="M250.19,415.73c-5.04,0-8.7-2.7-9.27-7.09h3.47c.44,2.42,2.82,3.91,5.8,3.91,3.22,0,5.2-1.57,5.2-3.39,0-1.45-.56-2.54-5.64-3.22-5.04-.73-8.1-1.93-8.1-5.84,0-2.98,2.58-6.16,8.14-6.16,4.8,0,8.02,2.42,8.46,6.49h-3.46c-.48-2.22-2.46-3.34-5-3.34-2.74,0-4.71,1.29-4.71,2.9,0,1.49,1.17,2.02,5.24,2.66,4.59.73,8.38,1.61,8.38,6.33,0,4.15-3.54,6.77-8.5,6.77Z"/>
    <path class="st1" d="M279.97,408.75c-1.45,4.43-5,6.93-9.79,6.93-5.96,0-10.64-4.75-10.64-10.84s4.67-10.92,10.44-10.92c5.36,0,10.52,4.43,10.48,11.81h-17.45c.44,4.31,3.75,6.85,7.17,6.85,2.94,0,5.04-1.41,6.17-3.83h3.63ZM276.67,402.67c-.85-3.39-3.67-5.64-6.69-5.64-2.86,0-5.88,2.1-6.77,5.64h13.46Z"/>
    <path class="st1" d="M301.97,415.2h-3.3v-3.34c-1.45,2.14-4.11,3.87-7.17,3.87-5.96,0-10.4-4.88-10.4-10.88s4.43-10.92,10.4-10.92c2.98,0,5.56,1.65,7.05,3.67v-12.37h3.43v29.98ZM291.49,397.11c-3.91,0-6.97,3.47-6.97,7.78s3.06,7.7,6.97,7.7,7.05-3.46,7.05-7.7-3.22-7.78-7.05-7.78Z"/>
  </g>
  <g>
    <path class="st1" d="M316.04,393.05c-.61.62-1.61.99-2.8.99-2.14,0-3.65-.94-3.94-2.67h.61c.3,1.37,1.52,2.09,3.31,2.09,1.02,0,1.88-.33,2.37-.84.29-.31.44-.72.41-1.17-.03-1.04-.87-1.56-2.95-1.86-1.46-.21-3.28-.46-3.31-2.14,0-1.15,1.09-2.31,3.21-2.31,1.88,0,3.11.84,3.47,2.37h-.62c-.35-1.14-1.32-1.79-2.83-1.79s-2.62.74-2.6,1.73c.02.97.91,1.28,2.78,1.55,1.76.26,3.39.72,3.47,2.44.02.59-.18,1.19-.59,1.61Z"/>
    <path class="st1" d="M318.34,389.59c.02,2.21,1.66,3.84,3.72,3.84s2.9-1.1,3.31-2.22h.64c-.59,1.83-1.96,2.83-3.95,2.83-2.42,0-4.33-1.94-4.33-4.41s1.89-4.48,4.23-4.48c2.54,0,4.27,2.31,4.23,4.45h-7.85ZM325.53,388.98c-.29-1.83-1.79-3.21-3.57-3.21s-3.28,1.38-3.56,3.21h7.13Z"/>
    <path class="st1" d="M328.55,390.9c0,1.45.67,2.44,2.29,2.37v.56c-1.83.17-2.9-1.04-2.9-2.93v-4.94h-1.15v-.61h1.15v-1.81h.61v1.81h2.29v.61h-2.29v4.94Z"/>
    <path class="st1" d="M339.54,393.84h-.61v-5.12c0-1.86-1-2.98-2.86-2.98-1.71,0-3.05,1.27-3.05,2.98v5.12h-.61v-12.25h.61v5.2c.61-1,1.71-1.65,3.06-1.65,2.17,0,3.46,1.37,3.46,3.57v5.12Z"/>
  </g>
  <g>
    <path class="st1" d="M309.84,399.92c.02,2.2,1.66,3.84,3.72,3.84s2.9-1.1,3.31-2.22h.64c-.59,1.83-1.96,2.83-3.95,2.83-2.42,0-4.33-1.94-4.33-4.41s1.89-4.48,4.23-4.48c2.54,0,4.26,2.31,4.23,4.45h-7.85ZM317.03,399.31c-.3-1.83-1.79-3.21-3.57-3.21s-3.28,1.38-3.56,3.21h7.13Z"/>
    <path class="st1" d="M325.6,404.17c-.15-.31-.23-.71-.23-1.24v-.16c-.68.96-1.98,1.55-3.66,1.55-1.48,0-3.08-.74-3.08-2.37,0-1.93,1.8-2.37,3.61-2.54,1.88-.18,3.13-.38,3.13-1.42,0-1.56-1.48-1.93-2.73-1.93-1.55,0-2.57.64-2.93,1.8h-.62c.38-1.51,1.65-2.39,3.55-2.39,2.12,0,3.34.92,3.34,2.52v4.79c0,.43.12,1.05.25,1.38h-.62ZM325.37,399.15c-.66.61-1.89.72-3.06.82-2.17.21-3.01.79-3.01,1.96,0,1.4,1.58,1.78,2.42,1.78,1.83,0,3.66-.82,3.66-2.62v-1.94Z"/>
    <path class="st1" d="M334.24,403.38c-.61.62-1.61.99-2.8.99-2.14,0-3.66-.94-3.94-2.67h.61c.3,1.37,1.51,2.09,3.31,2.09,1.02,0,1.88-.33,2.37-.84.3-.31.45-.72.41-1.17-.03-1.04-.87-1.56-2.95-1.86-1.46-.21-3.28-.46-3.31-2.14,0-1.15,1.09-2.31,3.21-2.31,1.88,0,3.11.84,3.47,2.37h-.62c-.35-1.14-1.32-1.79-2.83-1.79s-2.62.74-2.6,1.73c.02.97.9,1.28,2.78,1.55,1.76.26,3.39.72,3.47,2.44.02.59-.18,1.19-.59,1.61Z"/>
    <path class="st1" d="M337.31,401.24c0,1.45.67,2.44,2.29,2.37v.56c-1.83.17-2.9-1.04-2.9-2.93v-4.94h-1.15v-.61h1.15v-1.81h.61v1.81h2.29v.61h-2.29v4.94Z"/>
    <path class="st1" d="M340.8,399.92c.02,2.2,1.66,3.84,3.72,3.84s2.9-1.1,3.31-2.22h.64c-.59,1.83-1.96,2.83-3.95,2.83-2.42,0-4.33-1.94-4.33-4.41s1.89-4.48,4.23-4.48c2.54,0,4.26,2.31,4.23,4.45h-7.85ZM347.99,399.31c-.3-1.83-1.79-3.21-3.57-3.21s-3.28,1.38-3.56,3.21h7.13Z"/>
    <path class="st1" d="M354.35,396.07c-1.12-.1-1.97.21-2.5.72-.61.54-.94,1.37-.94,2.26v5.12h-.62v-8.48h.62v1.42c.15-.28.33-.54.56-.76.74-.66,1.73-.97,2.88-.84v.56Z"/>
  </g>
  <g>
    <path class="st1" d="M316.9,415.17h-.56v-1.86c-.63,1.21-1.86,2.04-3.3,2.04-2.13,0-3.86-1.8-3.86-4.02s1.72-4.08,3.86-4.08c1.44,0,2.67.84,3.3,2.07v-5.31h.56v11.16ZM313.04,407.82c-1.81,0-3.3,1.58-3.3,3.51s1.49,3.46,3.3,3.46,3.3-1.56,3.3-3.46-1.48-3.51-3.3-3.51Z"/>
    <path class="st1" d="M318.94,411.3c.02,2.01,1.52,3.5,3.39,3.5s2.64-1,3.02-2.02h.58c-.54,1.66-1.79,2.58-3.6,2.58-2.21,0-3.95-1.77-3.95-4.02s1.72-4.08,3.86-4.08c2.31,0,3.88,2.1,3.86,4.05h-7.16ZM325.49,410.74c-.27-1.66-1.63-2.92-3.25-2.92s-2.98,1.26-3.24,2.92h6.49Z"/>
    <path class="st1" d="M332.89,414.45c-.55.57-1.47.9-2.55.9-1.95,0-3.33-.86-3.58-2.43h.55c.27,1.25,1.38,1.91,3.01,1.91.93,0,1.71-.3,2.16-.77.27-.29.41-.66.38-1.06-.03-.95-.8-1.42-2.68-1.7-1.34-.2-2.99-.42-3.02-1.95,0-1.05.99-2.1,2.93-2.1,1.71,0,2.83.76,3.16,2.16h-.57c-.31-1.04-1.2-1.63-2.58-1.63s-2.38.67-2.37,1.58c.02.88.82,1.17,2.54,1.41,1.6.24,3.09.66,3.16,2.22.02.54-.16,1.08-.54,1.47Z"/>
    <path class="st1" d="M335.65,406.14h-.55v-1.38h.55v1.38ZM335.65,415.17h-.55v-7.72h.55v7.72Z"/>
    <path class="st1" d="M344.98,414.96c0,2.38-1.53,3.99-3.81,3.99-1.81,0-3.13-.95-3.6-2.54h.59c.43,1.24,1.53,1.98,3.01,1.98,1.98,0,3.26-1.35,3.26-3.44v-1.59c-.62,1.2-1.82,1.99-3.29,1.99-2.13,0-3.86-1.81-3.86-4.03s1.72-4.08,3.86-4.08c1.47,0,2.67.8,3.29,2.01v-1.82h.55v7.51ZM341.14,407.82c-1.83,0-3.3,1.58-3.3,3.51s1.47,3.46,3.3,3.46,3.29-1.45,3.29-3.46-1.38-3.51-3.29-3.51Z"/>
    <path class="st1" d="M353.56,415.17h-.55v-4.67c0-1.7-.92-2.71-2.61-2.71-1.56,0-2.77,1.16-2.77,2.71v4.67h-.56v-7.72h.56v1.3c.55-.91,1.56-1.5,2.79-1.5,1.98,0,3.15,1.25,3.15,3.25v4.67Z"/>
  </g>
  <rect class="st0" x="305.8" y="377.18" width=".33" height="48.5"/>
</svg>
