<?xml version="1.0" encoding="UTF-8"?>
<svg id="Layer_1" xmlns="http://www.w3.org/2000/svg" version="1.1" viewBox="0 0 595.28 841.89">
  <defs>
    <style>
      .st0 { fill: #3a51a3; }
      .st1 { fill: #010101; }
    </style>
  </defs>
  <g>
    <path class="st1" d="M250.19,415.73c-5.04,0-8.7-2.7-9.27-7.09h3.47c.44,2.42,2.82,3.91,5.8,3.91,3.22,0,5.2-1.57,5.2-3.39,0-1.45-.56-2.54-5.64-3.22-5.04-.73-8.1-1.93-8.1-5.84,0-2.98,2.58-6.16,8.14-6.16,4.8,0,8.02,2.42,8.46,6.49h-3.46c-.48-2.22-2.46-3.34-5-3.34-2.74,0-4.71,1.29-4.71,2.9,0,1.49,1.17,2.02,5.24,2.66,4.59.73,8.38,1.61,8.38,6.33,0,4.15-3.54,6.77-8.5,6.77Z"/>
    <path class="st1" d="M279.97,408.75c-1.45,4.43-5,6.93-9.79,6.93-5.96,0-10.64-4.75-10.64-10.84s4.67-10.92,10.44-10.92c5.36,0,10.52,4.43,10.48,11.81h-17.45c.44,4.31,3.75,6.85,7.17,6.85,2.94,0,5.04-1.41,6.17-3.83h3.63ZM276.67,402.67c-.85-3.39-3.67-5.64-6.69-5.64-2.86,0-5.88,2.1-6.77,5.64h13.46Z"/>
    <path class="st1" d="M301.97,415.2h-3.3v-3.34c-1.45,2.14-4.11,3.87-7.17,3.87-5.96,0-10.4-4.88-10.4-10.88s4.43-10.92,10.4-10.92c2.98,0,5.56,1.65,7.05,3.67v-12.37h3.43v29.98ZM291.49,397.11c-3.91,0-6.97,3.47-6.97,7.78s3.06,7.7,6.97,7.7,7.05-3.46,7.05-7.7-3.22-7.78-7.05-7.78Z"/>
  </g>
  <rect class="st0" x="305.8" y="377.18" width=".33" height="48.5"/>
</svg>
